<?xml version="1.0" encoding="UTF-8"?>
<svg xmlns="http://www.w3.org/2000/svg" version="1.1" viewBox="0 0 448 512">
  <defs>
    <style>
      .cls-1 {
        fill: #eee;
      }
    </style>
  </defs>
  <!-- Generator: Adobe Illustrator 28.7.1, SVG Export Plug-In . SVG Version: 1.2.0 Build 142)  -->
  <g>
    <g id="Layer_1">
      <path class="cls-1" d="M155.3,318.4c17.2,0,31.2-6.1,31.2-25.4s-11.7-27.4-30.3-27.5h-46v52.9h45.1ZM149.9,188.8h-39.6v44.8h42.7c15.1,0,25.8-6.6,25.8-22.9s-13.7-21.9-28.9-21.9h0ZM279.4,263.6h62.2c-1.7-18.5-11.3-29.7-30.5-29.7s-30.5,11.4-31.7,29.7ZM384,32H64C28.7,32,0,60.7,0,96v320c0,35.3,28.7,64,64,64h320c35.3,0,64-28.7,64-64V96c0-35.3-28.7-64-64-64ZM349.5,185h-77.8v-18.9h77.8v18.9ZM193.7,243.7c23.6,6.7,35,27.5,35,51.6,0,39-32.7,55.7-67.6,55.9h-93.1v-192h90.5c32.9,0,61.4,9.3,61.4,47.5s-9,28.8-26.2,37h0ZM312.4,205.1c43.5,0,67.6,34.3,67.6,75.4s-.1,3.3-.2,5c0,.8-.1,1.5-.1,2.2h-100.2c0,22.2,11.7,35.3,34.1,35.3s26.5-6.2,30.2-18.1h33.7c-10.4,31.9-31.9,46.8-65.1,46.8s-71.1-29.7-71.1-73,28.7-73.6,71.1-73.6h0Z"/>
    </g>
  </g>
</svg>